PathFileType	4	(X/Y/Z)	Patient4_TMGait_0pt5_02_right_40.trc.trc
DataRate	CameraRate	NumFrames	NumMarkers	Units	OrigDataRate	OrigDataStartFrame	OrigNumFrames
78.212290502793	78.212290502793	4	33	mm	78.212290502793	36	       141
Frame#	Time	Sacral			L.Shoulder			Chest			R.Shoulder			Neck			R.ASIS			L.ASIS			R.Thigh.Superior			R.Thigh.Lateral			R.Thigh.Inferior			R.Patella			L.Thigh.Superior			L.Thigh.Lateral			L.Thigh.Inferior			L.Patella			L.Shank.Superior			L.Shank.Lateral			L.Shank.Inferior			R.Shank.Superior			R.Shank.Lateral			R.Shank.Inferior			R.Heel			R.Midfoot.Superior			R.Midfoot.Lateral			R.Toe			L.Heel			L.Midfoot.Lateral			L.Midfoot.Superior			L.Toe			L.Elbow			L.Wrist			R.Elbow			R.Wrist			
		X1	Y1	Z1	X2	Y2	Z2	X3	Y3	Z3	X4	Y4	Z4	X5	Y5	Z5	X6	Y6	Z6	X7	Y7	Z7	X8	Y8	Z8	X9	Y9	Z9	X10	Y10	Z10	X11	Y11	Z11	X12	Y12	Z12	X13	Y13	Z13	X14	Y14	Z14	X15	Y15	Z15	X16	Y16	Z16	X17	Y17	Z17	X18	Y18	Z18	X19	Y19	Z19	X20	Y20	Z20	X21	Y21	Z21	X22	Y22	Z22	X23	Y23	Z23	X24	Y24	Z24	X25	Y25	Z25	X26	Y26	Z26	X27	Y27	Z27	X28	Y28	Z28	X29	Y29	Z29	X30	Y30	Z30	X31	Y31	Z31	X32	Y32	Z32	X33	Y33	Z33	

36	52.717500000000	719.061872583237	1002.460582619484	472.400103056623	918.131233706721	1430.842537493216	310.640669800978	1002.434748596563	1355.280966311452	479.908893023307	902.878960847423	1428.322263686030	646.324074290236	905.583934720261	1489.479317739648	461.923090549649	941.373956283813	936.358905489988	603.280127050758	938.887424255881	954.520571594082	328.502854070082	1006.146199500971	748.386615415512	568.548376878966	937.978397688018	633.199261958211	627.417110375182	1021.149670206938	588.790974799278	546.753165653746	1032.937331755665	498.170109554014	552.994400444965	966.941503878337	730.972353214267	358.624029438130	873.319764244929	621.145734547326	294.372019413918	947.546479268301	533.628173857396	360.331753585727	936.490565118602	450.905506000697	361.567005317881	874.115064411171	392.243155964623	353.610764667714	742.993666794635	331.973367810348	299.429994146579	737.701408727090	207.041432276889	362.329660223777	1006.985279108491	408.605646407769	561.730081178669	941.319437073198	303.356513662835	627.167932273819	985.121702599167	209.185868932017	564.042747482615	856.070298088002	42.984918772456	539.667964432015	1026.997133508572	98.366839373124	570.388905438556	941.360959315256	37.211279648394	612.144256711785	1148.727238185021	46.524324069197	595.281675903948	555.163972042760	111.568663149918	395.577076908318	623.155141204014	81.398114685102	317.189926325890	721.479313580975	111.763989191571	342.123153651230	822.142383791352	34.047652753977	316.226001632649	951.457945262057	1088.530851392801	169.759730443445	1196.397206432743	1007.027204147366	186.416543429607	785.241477047952	1096.022644445248	738.758780870673	799.275477976576	834.793650557950	727.541600000703	
37	52.730285714286	718.838104335135	1002.961737774829	475.727443472050	916.249611392513	1431.647920260808	312.887218194209	1002.134354828678	1355.828485355798	481.250217802905	904.202354346276	1428.539653659246	648.735948827602	905.058977544173	1489.995473727312	464.442452668164	941.812471870473	936.922629117226	604.884307484109	937.531582243961	954.711625497715	330.006663039954	1004.965572621562	747.493858311933	571.299506309450	935.208521764784	633.010451933736	629.255817325595	1018.222098675058	588.076772706175	548.636617157815	1029.121397323924	497.518557908595	554.248473023585	970.711655152657	733.254544072058	360.768204667789	881.279215884634	621.039190925435	296.097429546320	958.581951154739	535.146824419896	361.664202158741	948.504134976771	451.057493765249	362.166046970894	883.956088164586	392.672535252931	354.554525579540	750.363598849214	337.382537734503	301.010726742441	741.436236510870	212.322813573074	363.049406676526	1002.715978503050	408.111439314226	562.769999407226	936.618709609133	303.036987920010	627.912871559745	979.662341652635	208.806770283272	564.451945982485	849.747505669895	43.007007295981	539.773327269818	1020.754200627441	98.253268780598	570.571113538387	935.009157180156	37.159078486057	612.274824358211	1142.449740632708	46.114769676829	595.490013668223	555.353094940312	125.506762527523	396.468729983217	621.441032374723	91.777978861401	317.860717576804	721.426727442280	116.291952636964	342.584739863391	816.605437225518	33.215147822781	316.514161284638	946.189881624438	1087.841343638156	173.977857060524	1187.148596435403	993.685644179262	189.862540960689	793.562785869833	1093.581780231504	742.791633603934	818.452763745975	833.177505978394	730.246643675074	
38	52.743071428571	718.478664322548	1003.395728090845	479.017851747104	914.160314963623	1432.303259198456	314.927942128331	1001.730662500808	1356.269518649061	482.333265319825	905.544416376026	1428.655274407402	650.952218006741	904.415362502310	1490.404004273099	466.759004633503	942.041282140590	937.399942322759	606.450971253536	936.066116788311	954.672908565556	331.437202608472	1003.514241578144	746.561086031706	573.961685248604	932.324925604299	632.814332779394	631.114191748409	1015.045788940256	587.338896840249	550.437669377572	1025.056546071352	496.856749031267	555.514866576276	974.338204102668	735.712454536158	362.885545319280	889.256367156146	621.249195453228	297.605542669074	969.526503329527	537.138379587000	362.828503109755	960.576362806886	451.783518641453	362.731037922288	894.114208783167	393.536436203863	355.422613696851	758.305898986814	343.053111273804	302.500020031861	745.851280424461	218.011385018487	363.828482719203	998.232848248609	407.594392652823	563.833033500978	931.748137628250	302.665826186796	628.678361503725	974.072575396802	208.403239074045	564.868743629812	843.322419681975	43.008623311606	539.886190706955	1014.431457838112	98.091478635584	570.721771409861	928.569916927907	37.086071144125	612.402520787803	1136.090247444339	45.643095969956	595.641540318304	556.609330342882	139.775121905088	397.455751861341	620.735714352623	102.720061020370	318.594966332914	722.156197884573	121.377130259899	343.177555940362	811.795352681924	32.508737930399	316.772817157922	940.808779342439	1087.058947990135	177.970221629636	1176.811285590260	979.754653128526	193.103327654565	802.183113194050	1091.271494922917	746.913358216122	838.589904517188	832.228991688099	732.985946785656	
39	52.755857142857	717.964031757897	1003.778165520775	482.244361799876	911.925582067784	1432.802412823322	316.744613254716	1001.233631171827	1356.604099694956	483.166951231690	906.872658673690	1428.698062459666	652.941127419315	903.694331821262	1490.719117189710	468.838401597815	942.056494109183	937.805193745117	607.998943124141	934.505772706632	954.463847780931	332.815619906641	1001.832496585430	745.655343018498	576.430111845829	929.408016428039	632.632713844535	632.944126796381	1011.692073101111	586.605943907703	552.102907096998	1020.814643041740	496.203120266104	556.741451446161	977.729691641253	738.365993656449	364.962466864369	897.065203645946	621.848793878948	298.905792209745	980.163929638422	539.649565939386	363.831576602207	972.526581679825	453.141310555797	363.246125475930	904.433371993926	394.878876421595	356.199464296093	766.689958099141	348.861954072305	303.867234998651	750.945439125023	223.929918782947	364.621432501629	993.603860367277	407.075252909123	564.879926515558	926.777812337261	302.275918973870	629.452003050116	968.404852008053	207.997906522123	565.277994485510	836.836443724772	43.001124094217	540.012555647950	1008.060083177181	97.906939323443	570.848123878705	922.082281182376	37.008227488028	612.534076298307	1129.682229440846	45.156329544307	595.752759485254	559.008493560310	153.797800470366	398.489401608211	621.217250172322	113.772337959645	319.350928118650	723.814574639529	126.848935510837	343.838726425758	808.114300835845	32.029654465254	316.945509170921	935.314765107641	1086.162033449790	181.743616791373	1165.310780512783	965.378311372562	196.124774236012	811.096974324129	1089.126181287009	751.066663098652	859.624416384938	832.085483570323	735.688153289686	
